<svg xmlns="http://www.w3.org/2000/svg" viewBox="113 47 814 887" role="img" aria-label="tulip">
  <path fill="#de3f6d" d="M610.938 228.75h2.46c2.33.01 4.67.02 7 .05.36 0 .36 0 2.15.01 6.61.1 6.61.1 9.45 1.19l1 2c2.32.41 4.66.74 7 1v2h7v2c.54-.05 1.07-.09 1.63-.14 5.78-.27 10.92.54 16.5 1.95.33.09.33.09 1.99.5 14.6 3.87 37.42 11.27 46.49 23.93 1.64 3.26 2.61 6.57 3.58 10.07 2.38 8.06 5.83 15.24 9.75 22.65 2.16 4.15 4.2 8.35 6.27 12.55 6.15 12.34 13.77 23.88 21.08 35.55 3.2 5.11 6.36 10.25 9.51 15.39 1.69 2.74 3.42 5.45 5.16 8.16 5.52 8.61 10.68 17.13 15.04 26.39.94 1.89 1.9 3.78 2.85 5.66q4.725 9.33 9.21 18.78c.3.6.59 1.21.89 1.83 6.27 13.3 11.43 27.04 16.05 40.98.26.77.52 1.54.78 2.34 10.44 31.49 16.11 63.42 19.22 96.41.1.91.19 1.81.29 2.75 5.17 52.93-.78 110.99-18.29 161.25-.33 1.03-.65 2.05-.99 3.11-.33 1.04-.67 2.07-1.01 3.14-.29.91-.57 1.83-.87 2.77-1.16 3.06-2.55 5.88-4.04 8.79-1.53 3.09-2.9 6.24-4.28 9.4-3.36 7.65-6.83 15.01-11.2 22.14-1.61 2.65-3.05 5.34-4.48 8.09-3.55 6.53-7.78 12.55-12.13 18.56-.45.64-.91 1.27-1.38 1.93-8.36 11.59-17.48 22-27.62 32.07-.76.76-1.52 1.53-2.31 2.31-.89.89-1.77 1.78-2.69 2.69-.53.56-1.05 1.13-1.6 1.71-24.98 26.1-60.07 43.24-93.29 56.08-2.1.82-4.2 1.65-6.29 2.5-7.72 3.08-15.42 5.37-23.5 7.27-1.25.3-2.5.6-3.79.9-59.66 13.8-127.07 11.03-180.53-21.46-3.85-2.81-7.44-5.83-11-9-.69-.6-1.38-1.19-2.1-1.81-1.98-1.71-3.94-3.45-5.9-5.19-.81-.71-1.63-1.42-2.47-2.15-.85-.76-1.71-1.51-2.59-2.29-.39-.34-.39-.34-2.35-2.06-6.13-5.92-11.36-12.61-16.53-19.37-.58-.76-1.17-1.52-1.78-2.3-.55-.73-1.11-1.45-1.68-2.2-.5-.65-1-1.3-1.52-1.97-1.08-1.66-1.08-1.66-1.08-3.66h-2c-.25-.48-.51-.95-.77-1.44-2.37-4.33-4.83-8.58-7.39-12.79-12.84-21.14-26.52-45.39-31.72-69.75-1.39-6.52-3.26-12.91-5.06-19.33-7.06-25.25-7.06-25.25-7.06-29.69h-2c-.62-2.96-1.25-5.92-1.87-8.87-.18-.83-.35-1.65-.53-2.5-.36-1.69-.71-3.39-1.07-5.09-.33-1.61-.68-3.22-1.03-4.82-9.16-42.8-7.67-88.65-1.5-131.72l.51-3.98c.08-.63.08-.63.5-3.82l.43-3.4c.56-2.8.56-2.8 2.56-5.8.36-2.33.7-4.66 1-7l1-1c.16-1.58.28-3.16.38-4.75.37-4.28 1.33-6.61 3.62-10.25.52-2.66.74-5.29 1-8l1-3c.29-1.28.58-2.56.88-3.87.64-2.7 1.16-4.18 2.75-6.5 1.51-2.9 1.46-4.01 1.31-7.19-.14-5.18 1.03-9.15 2.8-13.98.93-2.56 1.8-5.1 2.62-7.7 2.89-9.14 6.27-17.83 10.51-26.44 1.37-2.8 2.7-5.61 4.03-8.43 1.06-2.21 2.11-4.43 3.16-6.64.5-1.04.99-2.08 1.5-3.16 9.15-19.1 9.15-19.1 14.44-26.09h2l1-3h2c.11-.6.21-1.2.32-1.81.79-2.54 1.78-3.36 3.68-5.19 2.87-4.3 2.87-4.3 3.38-7 .96-3.08 3.37-4.75 5.62-7v-3c5.35-5 5.35-5 8-5 .03-.44.03-.44.19-2.69 1-4.08 2.61-5.66 5.81-8.31h2c.14-.43.14-.43.82-2.63 2.14-6.08 4.95-10.64 9.37-15.31.49-.52.97-1.04 1.47-1.58 3.35-3.55 6.83-6.86 10.59-9.98 1.75-1.5 1.75-1.5 3.67-3.43 3.57-3.54 7.53-6.6 11.44-9.74 1.74-1.41 3.45-2.85 5.16-4.29 6.42-5.33 11.01-8.89 19.48-10.04l1-3h4c.13-.3.13-.3.75-1.81 1.45-2.54 2.77-3.66 5.25-5.19l1.88-.37c3.42-1.01 5.56-3.23 8.12-5.63l1-3c1.7-1.3 1.7-1.3 3.91-2.6.82-.49 1.64-.97 2.48-1.47.88-.52 1.77-1.03 2.67-1.56.9-.52 1.8-1.05 2.73-1.6 2.73-1.6 5.47-3.19 8.21-4.77.79-.46 1.59-.92 2.4-1.39 2.14-1.23 4.27-2.46 6.42-3.67.31-.18.31-.18 1.89-1.09 4-2.24 8.05-4.11 12.29-5.85.73-.3 1.45-.61 2.2-.92 10.42-4.33 20.78-8.56 31.8-11.08.63-.15.63-.15 3.82-.9 11.3-2.35 22.63-2.36 34.12-2.35M686.998 477c-10.03 12.44-10.69 25.1-9.79 40.49 2.12 19.62 11.04 39.39 26.49 51.88 6.29 4.5 12.42 4.93 19.86 4.82h2.54c4.09-.03 7.92-.17 11.9-1.19.96 2.56 1.27 4.32.25 6.9-.69 1.33-1.4 2.64-2.14 3.94-3.94 7.69-4.33 15.91-2.38 24.27 1.81 5.44 3.73 9.22 8.27 12.89.95.87 1.9 1.73 2.88 2.63 8.03 6.1 16.09 6.51 25.85 5.71 9.07-1.36 17.19-7.03 23.3-13.67 7.72-10.44 11.47-21.66 9.97-34.67-2.96-9.16-7.98-15.49-16.24-20.31-7.29-3.45-15.89-4.48-23.69-2.1-3.13 1.17-6.1 2.54-9.11 4-2.38 1.13-4.39 1.91-6.96 2.41v-2h-2c.35-.98.7-1.95 1.06-2.96.46-1.28.92-2.57 1.38-3.85.23-.65.46-1.29.7-1.95 6.9-19.31 2.28-40.57-5.86-58.93-5.71-11.85-13.94-21.07-26.03-26.56-11.64-2.69-21.64.03-30.25 8.25m-234 77c-8.9 11.72-10.82 29.74-9 44 2.68 14.86 6.98 28.29 18 39 1.04 2.32 2.04 4.65 3 7 1.59 1.71 1.59 1.71 3 3-.69.05-1.38.1-2.1.16-10.99 1.27-22.93 6.31-30.47 14.71-7.01 10.47-9.98 21.17-8.04 33.63 2.28 8.16 7.92 15.3 15.24 19.5 9.99 5.05 21.64 5.67 32.56 3.31 9.88-3.7 19.31-11.53 24.17-20.94 4.06-9.85 5.18-19.67 1.75-29.91-3.3-7.33-7.99-11.97-15.11-15.46l-2-2v-3c1.12-.08 2.23-.16 3.38-.25 9.16-1.2 16.3-5.05 22.62-11.75l1-2 2.88-1c4.65-2.98 4.89-6.84 6.12-12l1-2c.14-2.52.22-5.01.24-7.54 0-.37 0-.37.03-2.28l.03-4.79c.01-2.42.06-4.84.1-7.26.09-8.16-.11-14.95-4.4-22.13-.65-1.36-1.29-2.73-1.93-4.1-6.48-13.34-12.84-23.82-27.42-29.21-13.83-3.59-25.89 2.79-34.65 13.31m213 38a83 83 0 0 0-3.37 7.63c-6.52 15.74-17.02 27.09-32.63 34.37-12.64 5.23-29.72 9.6-42.86 4.29-6.94-3.31-12.59-7.24-17.67-13.03-1.87-1.6-3.09-1.84-5.53-2.01-4.52.47-7.01 2.26-9.94 5.75-1.28 3.14-1.59 5.65-1 9 5.33 9.97 18.74 16.43 29 20 15.4 4.05 33.18 3.92 48-2 1.18-.45 2.36-.89 3.57-1.36 22.12-8.9 39.3-24.96 49.43-46.64 1.75-4.78 2.65-8.92 2-14-1.94-3.44-1.94-3.44-5-6-5.92-1.4-9.68-.33-14 4"/>
  <path fill="#562118" d="M545.75 58.563c1.42 1.14 2.83 2.29 4.25 3.44.75.52 1.5 1.05 2.27 1.59.57.46 1.14.93 1.73 1.41v2c3.48 1.88 7.08 3.08 10.81 4.37 15.13 5.48 29.98 13.44 43.19 22.63.89.61 1.78 1.23 2.69 1.87 1.68 1.17 3.35 2.36 5.02 3.55 2.29 1.58 2.29 1.58 5.08 3.16.73.46 1.46.93 2.21 1.42v2c.89.22 1.77.45 2.69.68 3.88 1.54 5.43 3.3 8.31 6.32 1.65 1.35 3.32 2.68 5 4 3.57 2.82 6.86 5.69 10 9 1.16 1.17 2.33 2.33 3.5 3.5 2.06 2.05 4.1 4.11 6.13 6.18 2.37 2.32 2.37 2.32 4.81 4.19 3.25 2.7 6.1 5.69 8.56 9.13v2l3 1c1.37 1.29 2.71 2.62 4 4q.405-1.05.81-2.13c2.15-5.19 4.16-8.96 8.19-12.87 5.43-6.73 5.43-6.73 6.87-9.94 1.58-2.88 3.76-4.79 6.13-7.06.99-1 1.97-2.01 2.95-3.02 9.55-9.75 19.6-18.48 31.05-25.98.54-.36 1.07-.71 1.62-1.08 13.78-9.06 28.47-16.3 45.38-13.92 8.51 2.51 15.86 9.45 20.18 17.09 1.18 2.34 2.29 4.71 3.38 7.09.39.84.78 1.68 1.18 2.55 7.26 15.81 7.26 15.81 7.26 22.27l2 1c.68 1.65.68 1.65 1.31 3.94.13.45.13.45.79 2.77l1.92 7.04c4.94 18.03 10.47 35.88 16.35 53.62.34 1.01.67 2.02 1.02 3.06.31.94.62 1.88.95 2.84.27.82.54 1.64.83 2.48.8 2.18 1.78 4.18 2.83 6.25.67 2 1.34 4 2 6 1.27 3.25 2.62 6.47 3.96 9.69 1.2 2.93 2.04 5.11 2.04 8.31l2 1c1.03 2.04 1.03 2.04 2.14 4.75.41.99.81 1.98 1.24 3.01.43 1.07.86 2.14 1.31 3.24.22.54.22.54 1.35 3.29 1.32 3.23 2.64 6.47 3.96 9.71 1 2.44 2 4.88 3.01 7.32.55 1.35 1.11 2.71 1.66 4.06 1.34 3.27 2.72 6.51 4.18 9.74 30.46 68.21 57.26 149.8 54.71 225-.1 3.32-.21 6.63-.31 9.95-.02.82-.05 1.64-.07 2.49-.18 6.52-.21 13.04-.19 19.57.09 31.02-2.66 60.63-9.99 90.87-.19.79-.38 1.59-.58 2.41-1.36 5.56-2.85 11.08-4.42 16.59-.14.48-.14.48-.82 2.9-6.66 23.17-14.88 45.77-26.18 67.1-1.02 2.1-2.05 4.2-3.06 6.31-2.92 5.84-6.34 11.25-9.94 16.69-.62.95-1.23 1.91-1.87 2.9-4.33 6.63-8.98 12.93-13.86 19.16-1.84 2.38-3.58 4.77-5.27 7.25-.66.89-1.32 1.77-2 2.69h-2q-.375.825-.75 1.68c-1.48 2.74-3.18 4.99-5.25 7.32h-2c-.23.55-.45 1.11-.69 1.68-1.69 2.98-3.78 5.04-6.31 7.32h-2c-.27.64-.54 1.28-.81 1.94-1.19 2.06-1.19 2.06-4.19 3.06l-1 3a93 93 0 0 1-5.06 4.25c-4.19 3.33-8.24 6.73-12.19 10.34-1.84 1.48-3.64 2.36-5.75 3.41q-1.89 1.125-3.75 2.31c-.69.44-1.38.87-2.09 1.32-.36.23-.36.23-2.16 1.37-1.42.9-2.83 1.79-4.25 2.68-.31.2-.31.2-1.89 1.2-1.86 1.12-1.86 1.12-3.99 2.12-2.64 1.41-3.69 3.32-5.31 5.81-2.59 3.85-5.03 7.17-8.56 10.19h-2c-.23.56-.46 1.13-.7 1.72-1.64 2.88-3.67 4.61-6.17 6.78-4.88 4.25-4.88 4.25-7.18 6.55-38.03 37.88-96.55 59.51-147.95 69.95-.97.21-1.94.42-2.93.64-16.84 3.6-33.61 3.72-50.76 3.73-.56 0-.56 0-3.42.01-17.08 0-33.22-1.13-49.95-4.76l-3.12-.66c-16.28-3.52-32.18-8.04-47.57-14.46-.68-.27-1.36-.55-2.06-.83-3.23-1.39-4.92-2.13-6.51-5.34-1.68-2.33-1.68-2.33-3.74-2.81-2.68-.21-5.32-.27-8-.27-1.83-.04-3.65-.07-5.48-.11-.8-.01-1.61-.01-2.44-.02-2.02-.12-2.02-.12-4.02-1.12-2.02 0-4.04.01-6.07.06-34.74.83-72.16-12.81-101.93-30.06-.93-.52-1.85-1.04-2.8-1.58-7.75-4.4-15.15-9.27-22.51-14.29-1.59-1.07-3.21-2.09-4.82-3.12-2.99-2.09-5.33-4.41-7.87-7.01-1.69-1.42-3.4-2.82-5.13-4.19-4.1-3.33-8.12-6.72-12.06-10.25-.46-.41-.46-.41-2.79-2.5-2.02-2.06-2.02-2.06-2.02-4.06-.62-.29-1.24-.58-1.87-.88-2.7-1.42-4.12-3.11-6-5.5-2.13-2.62-2.13-2.62-4.38-4.81-1.75-1.81-1.75-1.81-1.75-3.81-.56-.19-1.11-.37-1.69-.56-3.34-2.08-5.36-5.05-7.31-8.44v-2l-3-1c-1.54-2.12-1.54-2.12-3.19-4.88-2.52-4.1-5.14-8.05-8-11.94-7.29-9.92-13.42-20.43-19.24-31.28-1.06-1.97-2.15-3.93-3.27-5.87-7.52-13.48-13.3-27.83-19.3-42.03-.46-1.1-.93-2.19-1.41-3.32-7.88-18.75-15-38.56-19.08-58.51-.51-2.17-.51-2.17-1.51-3.17-.62-2.78-1.18-5.55-1.71-8.35-.16-.86-.33-1.72-.5-2.61-.54-2.85-1.07-5.69-1.6-8.54-.18-.97-.36-1.95-.55-2.95-3.29-17.79-5.91-35.54-7.64-53.55-.12-1.15-.23-2.29-.35-3.47-3.54-36.31-2.72-73.54.08-109.88.2-2.7.37-5.38.52-8.08.03-.37.03-.37.13-2.24.08-1.43.16-2.87.23-4.3.28-4.92.28-4.92 1.39-6.03.1-1.85.13-3.7.13-5.56 0-1.19.01-2.37.01-3.6 0-1.3-.01-2.6-.01-3.93 0-1.34 0-2.69.01-4.03 0-2.82 0-5.65-.01-8.47-.01-3.59 0-7.19 0-10.78q.015-4.17 0-8.34c0-1.96.01-3.92.01-5.88-.02-6.18-.18-12.23-.93-18.37-.42-4.05-.12-8.1.05-12.16-.26-2.88-.26-2.88-1.72-4.75-1.81-2.51-2.09-4.14-2.46-7.2-.14-1.02-.27-2.05-.41-3.11-.14-1.11-.28-2.23-.42-3.38-1.52-11.18-3.45-22.21-5.69-33.26-.07-.37-.07-.37-.45-2.26-1.85-9.13-3.84-18.23-5.98-27.3-3.07-13.14-5.2-25.5 1.43-37.87 4.71-7.3 12.12-11.59 20.44-13.75 3.11-.6 6.23-1.11 9.36-1.57 2.64-.43 2.64-.43 5.64-1.43.1-.7.21-1.41.31-2.13 1.49-6.2 4.15-9.64 9.07-13.48 1.62-1.39 1.62-1.39 3.62-4.39 3.75-2.57 7.7-4.52 12-6 2.44.81 2.44.81 4 2 1-1 1-1 2.5-2.82 4.8-4.19 9.96-6.46 16.37-6.24.36.03.36.03 2.18.21 2.59-.2 3.25-1.29 4.95-3.15h2v-2c2.79-.49 5.58-.96 8.37-1.44.39-.07.39-.07 2.35-.41 8.88-1.5 17.68-2.31 26.68-2.39l2.62-.03c2.78-.02 5.57-.04 8.35-.05h2.89c20.72-.01 40.73 1.87 60.74 7.58 2.8.69 5.13.89 8 .74l2-4h2c.12-.36.12-.36.75-2.15 1.4-3.2 3.16-5.69 5.25-8.48 2.06-2.76 4.09-5.5 6-8.37.64-.13 1.28-.25 1.94-.38 2.06-.62 2.06-.62 3.81-3.18l1.25-2.44c.99.16.99.16 6 1-.04-.79-.08-1.57-.13-2.38.13-2.62.13-2.62 2.13-4.62v-3c.74-.41 1.49-.83 2.25-1.25 2.82-1.79 3.36-2.54 4.81-5.38 1.94-3.37 1.94-3.37 3.88-4 .68-.12 1.36-.25 2.06-.37 3.08-2.57 4.77-4.27 6-8.13 1-2.87 1-2.87 3.5-4.75 2.5-1.12 2.5-1.12 4.5-1.12.19-.77.37-1.53.56-2.32 2.02-3.76 4.55-4.14 8.44-5.68 3.02-2.35 3.99-3.99 5.5-7.56 1.49-3.41 2.3-4.69 5.5-6.44h2l1-3c1.63-1.06 3.3-2.05 5-3 1.93-1.34 3.85-2.69 5.75-4.06.48-.35.48-.35 2.92-2.1 2.33-1.84 2.33-1.84 3.33-3.84q2.985-1.545 6-3c2.16-1.29 4.3-2.61 6.44-3.94 12.99-8.06 12.99-8.06 15.56-8.06l1-2c1.79-.92 1.79-.92 4.12-1.84.86-.34 1.71-.68 2.59-1.04.9-.35 1.8-.7 2.73-1.06.43-.17.43-.17 2.62-1.05 24.76-9.79 54.23-13.72 76.69 3.55M480 74.003l-6 2.31c-27.87 11.82-55.25 32.99-76.12 54.77-1.78 1.81-3.62 3.42-5.57 5.04-12.66 10.89-23.55 24.4-33.31 37.88-.62.85-1.25 1.7-1.89 2.57-.31.44-.31.44-1.92 2.68-.59.81-1.17 1.62-1.77 2.45-1.34 2.16-1.98 3.82-2.42 6.3l2.06 1.03c2.1 1.05 4.19 2.1 6.28 3.15 2.44 1.22 4.89 2.41 7.35 3.58 15.22 7.29 29.65 16.03 42.31 27.24 6.82 6 6.82 6 9 6v2c1.5 1.44 1.5 1.44 3.56 3.12 3.76 3.17 6.89 6.57 9.99 10.37l1.45 1.51h2c.28.59.55 1.18.84 1.79 1.1 2.09 2.27 3.77 3.77 5.6q.75.93 1.53 1.89c.53.65 1.06 1.3 1.61 1.97 1.08 1.34 2.17 2.68 3.25 4.02.52.64 1.04 1.28 1.57 1.94 2.56 3.2 5 6.48 7.43 9.79 3.89-.56 6.24-1.6 9.37-3.94 17.76-12.87 36.52-24.33 55.63-35.06l3.4-1.94c15.42-8.25 33-15.06 50.6-15.06l2-1c1.49-.25 3-.46 4.5-.63.4-.05.4-.05 2.41-.29 2.09-.08 2.09-.08 4.09.92l1-2q8.73-.045 17.46-.06c1.98 0 3.97-.01 5.95-.02 2.84-.01 5.68-.02 8.52-.02.9-.01 1.79-.01 2.71-.02 2.12 0 4.24.06 6.36.12l1 1c1.69.07 3.38.08 5.06.06l2.79-.03 2.15-.03v2l15 1c.1-1.44.19-2.88.29-4.37.57-5.59 2.09-10.5 4.02-15.76.3-.84.59-1.68.9-2.55 1.7-4.75 3.62-9.15 6.14-13.53.84-2.32.49-3.5-.35-5.79-4.36-6.34-9.72-12.01-14.9-17.68-2.27-2.5-4.46-5.06-6.62-7.65-22.1-24.84-59.62-56.52-93.5-62.18-5.2-.12-10.01 1.04-14.98 2.51-.06-.98-.12-1.95-.18-2.96-.09-1.27-.17-2.54-.26-3.86-.08-1.26-.16-2.52-.24-3.83-.32-3.35-.32-3.35-1.32-6.35-2-1.35-2-1.35-4.56-2.63-.42-.21-.42-.21-2.51-1.29-15.32-5.67-32.59-2.6-46.93 3.92m290 31a92 92 0 0 0-4.81 6.37c-.44.64-.89 1.27-1.34 1.92-9.71 14.11-18.82 30.28-23.85 46.71-.63 1.61-1.28 3.21-1.94 4.81-3.15 7.87-5.39 15.15-6.53 23.59-.53 2.6-.53 2.6-2.53 5.6-2.68 11.49-3.31 23.1-3.37 34.87-.02 1.19-.03 2.38-.05 3.6.09 17.02 5.22 33.22 12.42 48.53.28.67.56 1.35.86 2.05 2.55 6.1 5.81 11.76 9.13 17.47 1.73 2.98 3.38 6 5.01 9.04 2.12 3.91 4.36 7.71 6.7 11.49.35.57.7 1.13 1.06 1.71.72 1.17 1.45 2.34 2.17 3.51 1.65 2.66 3.29 5.32 4.93 7.98.63 1.03 1.27 2.06 1.92 3.12 2.76 4.47 5.51 8.96 8.26 13.44 1.22 1.99 2.44 3.97 3.67 5.95 10.47 17 19.64 34.57 28.29 52.55.22.46.22.46 1.35 2.8 2.79 5.88 5.29 11.83 7.65 17.89.57 1.41 1.14 2.83 1.71 4.24 4.3 10.77 7.96 21.65 11.29 32.76l.76 2.49c4.27 14.01 7.47 28.13 10.24 42.51l.73 3.75c5.23 26.96 6.67 53.65 6.7 81.05l.03 6.48c.09 27.6-2.35 54.55-7.46 81.72-.16.86-.32 1.72-.49 2.61a236 236 0 0 1-7.87 30.44c-.65 1.97-1.26 3.95-1.86 5.94-4.5 14.86-9.81 29.32-16.91 43.17-.18.36-.18.36-1.12 2.2-.74 1.45-1.49 2.89-2.25 4.33-.89 1.74-1.7 3.52-2.5 5.31l1 2c.81-.83 1.62-1.67 2.45-2.52l3.24-3.3c.53-.54 1.06-1.09 1.6-1.65 3.05-3.08 5.91-5.4 9.71-7.53 1.45-1.11 2.87-2.25 4.25-3.44.69-.58 1.37-1.15 2.08-1.75 1.84-2 2.11-3.21 2.67-5.81l2.31-2.13c2.57-2.75 3.37-4.2 4.63-7.62 1.61-4.35 3.61-7.77 6.24-11.56 9.08-13.46 16.05-27.98 22.82-42.69l1.03-2.18c3.21-6.9 5.54-14.1 7.91-21.32.22-.67.44-1.34.66-2.02 5-15.13 9.5-30.09 12.6-45.73.8-3.75.8-3.75 1.8-5.75.37-2.33.69-4.67 1-7 .89-6.78.89-6.78 2-9 .34-2.22.63-4.45.9-6.68.08-.68.17-1.36.25-2.06.18-1.45.35-2.91.52-4.36l.78-6.42c.54-4.49 1.05-8.99 1.55-13.48.09-.81.19-1.62.28-2.45 1.59-14.06 2.09-27.97 2.03-42.11v-3.19c-.06-16.61-.76-32.81-3.31-49.25-.22-1.48-.44-2.95-.67-4.43-.73-4.82-1.49-9.63-2.27-14.45-.12-.75-.24-1.51-.36-2.29-1.41-8.68-3.19-17.03-5.72-25.47-1.62-5.58-2.85-11.25-4.11-16.92-.49-2.26-1-4.51-1.5-6.76-.22-.97-.43-1.95-.66-2.95-.7-2.7-1.67-5.15-2.71-7.73-.33-1.36-.63-2.73-.89-4.11-1.18-5.53-2.97-10.8-4.8-16.14-.71-2.12-1.43-4.24-2.15-6.36-.36-1.06-.72-2.12-1.09-3.22-1.03-3.05-2.04-6.1-3.05-9.16-.15-.47-.15-.47-.94-2.85-.58-1.77-1.16-3.53-1.73-5.3-1.19-3.59-2.41-7.12-3.93-10.59-1.3-3-2.36-5.97-3.36-9.09-3.79-11.56-8.76-22.69-13.45-33.9-4.41-10.53-8.78-21.06-12.92-31.69-1.7-4.31-3.58-8.43-5.69-12.56-1.81-3.67-3.3-7.47-4.81-11.28-.35-.87-.69-1.74-1.05-2.64-3.65-9.28-6.94-18.67-10.14-28.11-.33-.97-.66-1.93-1-2.93-4.2-12.27-8.12-24.54-11.47-37.07-2.11-7.92-4.28-15.69-7.47-23.24-1.36-3.54-2.41-7.14-3.5-10.76-5.43-17.82-5.43-17.82-13.56-23-5.07 0-5.07 0-8 2m-34 12c-.87.66-1.75 1.32-2.64 2.01-27.29 21.51-45.82 50.91-58.36 82.99-.27.69-.55 1.39-.83 2.1-4.48 11.48-4.48 11.48-4.17 17.9 2.83 1.27 5.67 2.54 8.5 3.81.79.36 1.58.71 2.4 1.08 3.75 1.68 7.49 3.28 11.36 4.67 3.26 1.2 6.11 2.7 9.05 4.56 2.63 1.66 4.73 2.89 7.69 3.88l.06-2.35c.52-19.25 1.8-37.05 6.94-55.65.22-.79.43-1.59.66-2.4 3.04-11 6.64-21.45 11.49-31.79.82-1.76 1.62-3.53 2.42-5.3 2.83-6.3 5.9-12.37 9.33-18.37 1.1-2.14 1.1-2.14 1.1-4.14h2c.66-1.12 1.32-2.23 2-3.38.19-.31.19-.31 1.13-1.9.87-1.72.87-1.72.87-3.72h2v-2c-4.67 0-9.42 5.27-13 8m-538 82c-.91.32-1.82.65-2.75.99-9.46 3.71-16.69 10.66-22.25 19.01-.13 2.68-.13 2.68 0 5 .53.16 1.06.32 1.6.48 2.45.75 4.89 1.51 7.34 2.27.41.12.41.12 2.52.76 5.72 1.79 11.11 3.96 16.54 6.49 1.44.64 2.89 1.29 4.33 1.94 29.45 13.44 55.88 32.11 78.67 55.06.76.74 1.53 1.48 2.31 2.25 3.13 3.19 6.02 6.56 8.92 9.95.58.6 1.17 1.19 1.77 1.8h2c.12.27.12.27.73 1.67 1.55 2.84 3.44 5.11 5.52 7.58 7.31 8.84 13.51 17.93 19.49 27.71 1.15 1.85 2.31 3.69 3.48 5.53 4.92 7.8 9.07 15.9 13.09 24.19.51 1.04 1.01 2.07 1.53 3.14 3.29 6.9 5.91 13.87 8.16 21.18h2c.62-1.13 1.23-2.25 1.87-3.41 15.54-28.22 32.95-56.92 56.13-79.59.9-.93 1.8-1.85 2.73-2.8 6.41-6.56 13.08-12.49 20.27-18.2 2.35-1.98 4.68-3.99 7-6-.43-5.23-3.21-8.44-6.31-12.44-.27-.35-.27-.35-1.62-2.12-34.31-44.45-81.39-72.68-137.09-81-1.32-.16-2.65-.3-3.98-.44-.82-.09-1.63-.18-2.47-.27-30.93-3-62.32-1.95-91.53 9.27m375 33c-.69.16-1.39.33-2.1.5-30.86 7.63-58.48 24.74-84.71 42.06-1.85 1.21-3.7 2.42-5.56 3.62-11.61 7.58-22.64 16.02-33.3 24.88a182 182 0 0 1-4.82 3.88c-2.68 2.2-5.07 4.59-7.51 7.06-1.78 1.61-3.58 3.21-5.37 4.81-4.59 4.16-8.68 8.44-12.63 13.19-.8.92-1.59 1.84-2.41 2.79-11.3 13.07-21.6 26.63-30.51 41.44-1.56 2.56-3.2 5.07-4.83 7.58-11.79 18.5-21.11 38.86-29.25 59.19-.33.8-.65 1.6-.99 2.42-2.29 5.63-4.36 11.3-6.26 17.08-.29.89-.59 1.78-.89 2.7-.96 2.93-1.91 5.86-2.86 8.8-.34 1.04-.67 2.08-1.02 3.15-7.92 24.65-13.17 49.27-16.71 74.89-.25 1.84-.52 3.68-.78 5.52-6.55 47.29-3.51 96.45 7.26 142.88.25 1.09.51 2.19.77 3.31 2.79 11.86 6.01 23.58 9.48 35.25.2.69.41 1.38.62 2.09 5.64 18.72 13.04 37.61 22.29 54.85 1.27 2.41 2.51 4.83 3.75 7.26 4.53 8.88 9.1 17.48 14.88 25.62 1.46 2.18 1.46 2.18 2.46 5.18h2c.21.67.42 1.34.63 2.02 1.86 4.04 4.48 7.14 7.31 10.54.58.7 1.16 1.41 1.75 2.13 7.5 9.04 15.16 17.88 24.31 25.31.78.64 1.56 1.29 2.36 1.95 9.19 7.49 18.38 13.77 29.14 18.8.97.47 1.94.93 2.93 1.42 6.07 2.87 12.08 5.11 18.57 6.83v2h3v3l6-1v3c.71-.01 1.42-.03 2.15-.04.46 0 .46 0 2.79-.02.91-.02 1.83-.03 2.77-.04 2.29.1 2.29.1 3.29 1.1 1.8.21 3.61.37 5.43.5 1.1.08 2.21.16 3.35.25 1.17.08 2.33.16 3.53.25 2.29.16 4.58.33 6.87.5 1.02.07 2.04.14 3.09.22 2.35.24 4.45.67 6.73 1.28 13.28 1.38 26.67 1.2 40 1 .71-.01 1.42-.02 2.15-.02 14.74-.23 29.39-3.33 43.85-5.98.92-.17 1.84-.34 2.79-.51 34.79-6.57 71.74-22.8 100.5-43.28 1.75-1.24 3.51-2.46 5.28-3.67 7.16-4.97 13.91-10.29 20.49-16 2.05-1.77 4.1-3.5 6.19-5.21 2.67-2.27 4.61-4.57 6.75-7.33 2.12-2.18 4.26-4.32 6.49-6.38 15.48-14.74 30.03-35.59 39.21-54.89 1.01-2.13 2.06-4.24 3.13-6.34 4.75-9.32 9.07-18.77 13.17-28.39.49-1.12.98-2.24 1.49-3.39 23.38-56.07 27.72-125.78 20.51-185.61-.14-1.33-.27-2.66-.4-3.99-3.5-32.09-11.19-63.83-22.6-94.01-.32-.85-.64-1.69-.97-2.56-1.73-4.56-3.5-9.1-5.31-13.63-.62-1.55-1.21-3.1-1.8-4.65-2.54-6.64-5.73-12.93-8.95-19.26-.99-1.94-1.96-3.88-2.92-5.83-7.34-14.83-15.11-29.13-24.05-43.07-4.74-7.41-9.37-14.86-13.94-22.37-2.6-4.26-5.23-8.5-7.93-12.69-2.92-4.56-5.58-9.18-8.13-13.94-.33-.61-.66-1.21-.99-1.84-7.02-12.99-13.58-25.79-17.83-39.98-2.43-7.83-6.12-11.61-13.37-15.5-.71-.38-1.41-.77-2.14-1.16-2.22-1.19-4.44-2.36-6.67-3.52-.33-.18-.33-.18-2.01-1.06-12.74-6.66-26.18-11.04-39.99-14.94-.95-.28-1.9-.55-2.88-.84-23.7-6.62-52.19-7.08-76.12-1.16m-437 9c-3.89 7.77-.35 19.36 1.69 27.31l1.65 6.84c.28 1.14.56 2.28.84 3.45 3.7 15.37 6.64 30.62 7.82 46.4.06.75.11 1.49.17 2.26.31 4.25.59 8.49.83 12.74h2c-.01.56-.01 1.12-.02 1.69-.02 2.54-.03 5.08-.04 7.62l-.03 2.67c0 .85 0 1.7-.01 2.57 0 .78-.01 1.56-.01 2.36.11 2.09.11 2.09 1.11 5.09 1.14 10.11 1.16 20.27 1.13 30.44-.01.73-.01 1.46-.01 2.22-.02 9.56-.15 19.1-.56 28.65l-.12 2.8c-.31 6.28-.31 6.28-.96 9.25-.56 3.1-.57 5.98-.54 9.13.01 1.26.01 2.53.02 3.83.03 2.62.05 5.23.08 7.85.04 7.25-.16 14.42-.67 21.65-.55 8.2-.57 16.4-.56 24.62 0 .84.01 1.68.01 2.56.11 40.74 4.36 81.25 13.49 121 .64 2.78 1.24 5.58 1.83 8.37 5.4 25.02 14.38 50.13 24.88 73.44.93 2.07 1.82 4.15 2.7 6.23 12.75 29.87 30.06 58.35 51.28 82.96q.9 1.05 1.83 2.13c8.23 9.51 16.53 18.95 26.17 27.05.56.48 1.12.95 1.7 1.44 19.51 16.31 40.72 31.25 64.63 40.35q3.06 1.185 6.09 2.46c8.01 3.35 15.96 6 24.41 8.04 2.45.6 4.89 1.22 7.33 1.85 9.64 2.43 18.86 4.47 28.84 4.68-2.99-3.57-5.96-7.02-9.31-10.25-5.29-5.2-10.07-11.03-14.33-17.08-.45-.55-.9-1.11-1.36-1.67h-2c-.25-.72-.49-1.43-.75-2.16-1.4-3.19-3.16-5.54-5.31-8.28-9.28-12.08-16.78-25.15-23.94-38.56-.17-.33-.17-.33-1.06-1.98-6.07-11.44-11-23.36-15.86-35.36-.9-2.23-1.82-4.45-2.76-6.67-2.74-6.73-5.13-13.65-5.32-20.99.63-1.35 1.29-2.69 2-4l-1-2h-3c-.35-1.13-.7-2.27-1.06-3.43l-1.38-4.45c-.23-.74-.46-1.49-.69-2.26-1.76-5.64-1.76-5.64-2.87-7.86h-2l-.36-3.87c-.58-5.22-1.74-10.22-2.95-15.32-2.11-9.28-3.64-18.57-4.88-28-.15-1.17-.31-2.35-.47-3.55-.38-3.07-.75-6.14-1.1-9.21l-.51-4.28c-1.61-13.63-2.13-27.12-2.1-40.83v-3.2c.11-40.14 5.36-78.91 15.37-117.74.22-.85.43-1.69.66-2.56 4.93-18.92 11.01-37.48 19.19-55.25 4.09-9.24 3.84-17.05 1.59-26.75-.18-.78-.36-1.55-.54-2.34-4.62-18.92-14.58-36.72-24.9-53.1-.49-.82-.99-1.64-1.5-2.48-10.44-16.98-23.3-32.56-37.5-46.52-5-5-5-5-6.92-6.99-28.25-28.96-75.12-58.64-116.71-60.57-5.4.18-9.36 1.93-13.37 5.56"/>
  <path fill="#df3f6d" d="M184.438 243.938c3.2 1.33 6.38 2.69 9.56 4.06 1.02.42 2.03.85 3.08 1.28 14.5 6.24 28.01 14.71 40.92 23.72.95.66 1.91 1.31 2.89 1.99 10.43 7.36 20.31 15.75 29.11 25.01l2.38 2.38 2.62 2.62c.66.64 1.32 1.27 1.99 1.92 27.08 26.43 58.44 70.06 62.01 109.08.08.69.15 1.38.23 2.09.47 7.89-2.28 14.03-5.41 21.16q-1.545 3.63-3.06 7.26c-.49 1.14-.97 2.28-1.47 3.45-34.94 82.68-37.34 183.7 5.4 328.83 10.7 26.27 24.53 51.16 42.1 73.49 1.21 1.72 1.21 1.72 1.21 3.72l3 1c1.65 1.86 1.65 1.86 3.38 4.19 2.06 2.76 4.13 5.43 6.44 8 2.27 2.93 3.23 5.25 4.18 8.81l1 3c-6.36 3.18-15.32.59-21.87-1.06-.9-.22-1.79-.44-2.72-.67-11.76-2.99-23.52-6.65-34.32-12.25-2.28-1.11-4.6-2.03-6.96-2.94-5.28-2.06-10.18-4.63-15.13-7.39-.87-.49-1.75-.97-2.66-1.48-6.05-3.4-11.8-7-17.34-11.21l-2.76-2c-5.75-4.21-11.26-8.62-16.68-13.25-.57-.49-1.15-.99-1.75-1.5-3.41-2.95-6.62-6.04-9.81-9.25-.95-.76-1.89-1.52-2.87-2.31-3.1-2.54-5.63-5.43-8.23-8.47-2-2.33-4.07-4.58-6.15-6.84-26.53-29.54-46.18-65.65-60.75-102.38-.37-.93-.74-1.85-1.12-2.81-8.32-20.84-15.38-41.79-20.38-63.69-.25-1.1-.51-2.2-.77-3.34-1.28-5.88-1.97-11.29-1.72-17.31-.01-1.85-.01-1.85-1.01-2.85-.27-1.51-.49-3.03-.68-4.56-.12-.94-.25-1.88-.37-2.86-.07-.5-.07-.5-.39-3.02-.82-6.52-1.75-12.92-3.26-19.32-.5-3.75.52-6.69 1.7-10.24l-3 1v-6h-2c-1.08-7.15-1.61-14.29-2.06-21.5-.04-.7-.09-1.41-.13-2.14-.76-12.31-1-24.59-.99-36.92-.01-.81-.01-1.61-.01-2.44.01-28.45.01-28.45 3.19-40 1.16-8.24 1.32-16.57 1.61-24.87.04-.98.07-1.95.11-2.96.02-.44.02-.44.09-2.65.19-2.52.19-2.52.7-4.85.5-2.7.62-5.16.62-7.9.01-1.02.01-2.04.01-3.08v-6.7c0-2.37 0-4.73-.01-7.1 0-3.64 0-7.28.01-10.91v-10.22c0-1 0-2.01-.01-3.04v-2.69c-.13-2.03-.13-2.03-1.13-3.03-.32-2.32-.51-4.64-.72-6.97-.28-2.03-.28-2.03-1.28-3.03-.23-1.63-.4-3.28-.54-4.92-.1-1.07-.2-2.14-.31-3.24-.11-1.18-.22-2.37-.33-3.59-2.85-28.06-7.52-56.1-14.64-83.41-1.92-7.36-3.33-14.2-2.18-21.84 10.52-14.9 35.9-4.52 49.44.94"/>
  <path fill="#de3f6c" d="M780 104c7.62 7.25 10.8 17.7 13.62 27.56.58 1.96 1.15 3.92 1.73 5.88.28.94.55 1.89.84 2.86.96 3.2 2.01 6.36 3.08 9.52 1.27 3.79 2.47 7.61 3.67 11.43.26.84.53 1.67.8 2.53 1.4 4.45 2.78 8.89 4.14 13.34.7 2.3 1.41 4.59 2.12 6.88.26.85.52 1.69.79 2.57 6.94 22.55 14.77 45.13 25.02 66.43 3 6.42 5.62 12.96 8.22 19.55 1.97 4.98 4.01 9.92 6.16 14.83 2.5 5.75 4.6 11.6 6.66 17.53.92 2.47 1.89 4.66 3.15 6.97 2.37 4.43 3.64 9.22 5.08 14.01 1.21 3.98 2.55 7.8 4.23 11.61 6.81 15.7 12.06 32.77 16.16 49.38.71 2.84 1.47 5.67 2.23 8.51 8.78 32.89 15.04 64.85 15.96 98.95l.09 3.33c.03.98.05 1.96.08 2.97C904 503 904 503 905 505c.1 1.35.15 2.71.16 4.07l.03 2.56c0 .46 0 .46.01 2.79.01.96.02 1.92.02 2.91q.03 4.71.03 9.42c0 1.06 0 2.13.01 3.23 0 16.54-.73 32.7-2.88 49.11-.35 2.67-.66 5.35-.95 8.03-.7 6.17-1.7 11.91-3.43 17.88-.27 2.12-.27 2.12-.38 4-.52 5.49-2.05 10.68-3.52 15.98-.92 3.31-1.75 6.63-2.56 9.97-2.13 8.81-4.72 17.43-7.54 26.05-.21.65-.43 1.31-.65 1.98q-2.13 6.525-4.35 13.02c-.32.94-.63 1.88-.96 2.86-6.84 19.71-17.05 40.06-29.04 57.14-.61.87-1.22 1.74-1.85 2.63-3.7 5.17-7.54 10.25-11.4 15.31-.41.54-.82 1.09-1.25 1.65-2.32 3.01-4.63 5.91-7.5 8.41-2.25-.25-2.25-.25-4-1v2l-4 2c.25-7.22 2.37-12.63 5.32-19.19 4.37-9.76 7.89-19.85 10.69-30.17.69-2.53 1.41-5.05 2.17-7.57 11.14-37.34 13.83-77.29 14.56-116.06.07-3.47.17-6.94.27-10.41.3-13.14-.07-25.75-3.01-38.6l-1-1c-.27-1.51-.49-3.03-.68-4.56-.13-.94-.25-1.89-.38-2.86-.06-.5-.06-.5-.38-3.02-.92-7.26-2.05-14.4-3.56-21.56-.21-1.02-.41-2.03-.62-3.08-3.09-15.23-6.55-30.15-11.38-44.92-.31-.97-.62-1.94-.95-2.94-3.93-12.2-8.09-24.23-13.05-36.06-.4-.99-.79-1.99-1.2-3.01-5.56-13.85-12.76-26.99-19.81-40.13-.85-1.59-1.69-3.19-2.54-4.78-9.3-17.31-19.8-33.97-30.29-50.58-4.05-6.42-7.99-12.82-11.53-19.54-1.3-2.36-2.64-4.66-4.04-6.96-5.13-8.45-9.39-16.59-12.59-26-.43-1.15-.86-2.3-1.3-3.49-2.75-7.41-5-14.8-6.7-22.51-.17-.75-.35-1.51-.52-2.28-2.53-14.42-4-41.94 4.52-54.72.54-2.38 1.01-4.78 1.44-7.19 1.04-5.56 2.36-10.59 4.56-15.81.45-1.24.91-2.47 1.38-3.75 19.55-51.85 19.55-51.85 33.62-60.47 3.09-1.2 4.87-.8 8 .22"/>
  <path fill="#cf3362" d="M252.066 189.664c.53 0 .53 0 3.24-.02 2.27-.01 4.54-.01 6.8-.01 3.39-.01 6.78-.05 10.17-.08 19.43-.11 37.55 2.79 56.16 8.26.6.17.6.17 3.6 1.05 8.84 2.64 16.81 5.84 24.96 10.14l3.93 1.86c9.62 4.56 18.42 9.93 27.07 16.14.56.39 1.11.78 1.68 1.19 17.58 12.68 32.71 28.21 45.32 45.81.64.86 1.28 1.72 1.93 2.61.56.79 1.12 1.58 1.7 2.39.49.68.97 1.36 1.48 2.06 1.15 2.48.8 3.39-.11 5.94-2.1 2.02-4.18 3.85-6.43 5.68-1.29 1.07-2.57 2.14-3.85 3.21-.63.53-1.26 1.06-1.92 1.6-8.64 7.24-16.72 14.95-24.07 23.5-1.08 1.26-2.18 2.5-3.3 3.73-14.98 16.5-27.24 35.66-38.15 55.01-1.61 2.86-3.25 5.72-4.89 8.57-1.46 2.57-2.93 5.13-4.39 7.7h-2c-.37-1.12-.75-2.24-1.14-3.39-7.07-20.32-16.97-38.72-28.86-56.61-.52-.79-1.03-1.58-1.57-2.39-2.48-3.75-4.95-7.46-7.74-10.99-.29-.36-.29-.36-1.74-2.21-3.03-3.75-6.12-7.44-9.22-11.13-1.73-2.28-1.73-2.28-1.73-4.28-.49-.17-.49-.17-3-1-1.61-1.61-1.61-1.61-3.31-3.63-.62-.72-1.23-1.45-1.87-2.19-1.11-1.34-2.22-2.68-3.32-4.02-3.17-3.82-6.53-7.08-10.31-10.29-2.37-2.03-4.65-4.13-6.94-6.25-5.47-4.93-11.28-9.31-17.25-13.62-.81-.6-1.62-1.2-2.45-1.81-12.16-8.75-25.42-16-38.55-23.19-1-.56-2-1.12-3.04-1.69-7.92-4.2-16.2-6.91-24.72-9.6-3.76-1.2-7.5-2.46-11.24-3.71-.31-5 .92-7.04 4-10.82 14.49-15.76 34.15-19.59 54.77-20.88 2.23-.3 2.23-.3 5.18-1.3 4.99-1.44 9.97-1.33 15.12-1.34"/>
  <path fill="#e1406e" d="M528 72c3.95 3.37 5.9 6.7 6.31 11.88-.17 10.92-5.67 20.1-11.31 29.12-3.39 5.49-6.49 10.85-9 16.79-1.04 2.29-2.23 4.42-3.5 6.59-2.36 4.14-3.98 8.36-5.53 12.86-1.2 3.41-2.56 6.74-3.94 10.08-8.26 21.54-13.83 44.6-17.22 67.37-.17 1.14-.34 2.29-.52 3.47-.73 5.1-1.36 10.16-1.63 15.31-.62 11.25-.62 11.25-3.58 14.9-2.6 1.86-5.22 3.21-8.08 4.63a460 460 0 0 0-6.38 4.5c-4.9 3.47-4.9 3.47-7.67 3.59-3-1.68-4.73-4.29-6.7-7.03-.88-1.18-1.76-2.37-2.64-3.55-.43-.59-.87-1.18-1.32-1.79-2.49-3.32-5.15-6.5-7.79-9.7C436 249 436 249 435 246l-3-1c-1.61-1.64-1.61-1.64-3.31-3.69-2.28-2.69-4.58-5.24-7.13-7.69C419 231 419 231 419 229c-1.7-1.52-3.46-2.97-5.25-4.38-2.76-2.18-5.43-4.3-7.91-6.8-2.07-2.04-4.31-3.25-6.86-4.61-2.33-1.42-4.32-3.09-6.42-4.83-4.21-3.37-7.33-4.28-12.56-5.38-1.63-.88-3.25-1.76-4.82-2.73-2.97-1.73-6.04-3.25-9.12-4.77-.61-.3-1.22-.61-1.84-.92L359 192c-1.63-.81-3.25-1.62-4.88-2.44-1.03-.51-2.06-1.03-3.12-1.56 1.45-4.11 3.52-7.46 6-11 .5-.74.99-1.49 1.5-2.25 4.34-6.43 9.25-12.06 14.5-17.75 1.13-1.29 2.26-2.58 3.38-3.88 8.29-9.47 16.78-18.39 26.16-26.81 1.27-1.14 2.53-2.3 3.79-3.45 6-5.47 12.35-10.46 18.78-15.4l3.75-2.91c8.05-6.31 16.32-12.09 25.02-17.49.85-.53 1.71-1.06 2.59-1.61 8.26-5.04 16.67-9.35 25.78-12.64.67-.24 1.34-.49 2.02-.75 1.91-.7 3.82-1.38 5.73-2.06.48-.19.48-.19 2.88-1.15 10.7-2.91 25.41-2.27 35.12 3.15"/>
  <path fill="#cf3362" d="M559.563 91c2.15.98 4.3 1.98 6.44 3 1.38.62 2.77 1.25 4.15 1.87 8.4 3.79 16.23 7.91 23.85 13.13 1.52 1.02 3.05 2.03 4.58 3.05 8.27 5.53 16.22 11.04 23.42 17.95 1.3 1.15 2.62 2.3 3.94 3.44 1.35 1.18 2.7 2.37 4.06 3.56.84.73 1.68 1.47 2.54 2.23 4.57 4.03 8.67 8.01 12.46 12.77 1.66 1.67 3.33 3.34 5 5 5.06 5.34 10.11 10.72 14.75 16.44.47.57.94 1.15 1.42 1.74 1.2 2.64.66 4.07-.17 6.82-.86 2.08-1.76 4.14-2.69 6.19-3.22 7.23-5.69 14.65-8.11 22.17-1.2 3.64-1.2 3.64-2.2 5.64-5.38-.39-10.66-.85-15.94-2-49.44-10.53-98.88 7.56-140.19 33.59-.71.45-1.43.9-2.16 1.36-1.4.89-2.8 1.78-4.19 2.67-3.42 2.18-6.67 4.04-10.52 5.38.62-22.04 4.4-43.71 10-65 .38-1.47.76-2.95 1.13-4.42 1.46-5.59 3.01-11.11 4.87-16.58.45-1.41.91-2.83 1.36-4.24.51-1.55 1.01-3.09 1.51-4.64.25-.76.49-1.52.74-2.31 1.5-4.56 3.27-8.78 5.48-13.03 1.14-2.23 2.03-4.51 2.91-6.84 1.36-3.47 2.87-6.64 4.8-9.83 1.68-2.97 3.14-6.04 4.64-9.11 2.13-4.36 4.38-8.36 7.36-12.2 2.63-3.95 4.35-8.45 6.2-12.8h3c1.49-1.21 2.98-2.42 4.4-3.71 6.43-5.19 13.88-4.26 21.16-1.29"/>
  <path fill="#531d13" d="M499.477 546.621c10.28 8.21 15.56 20.89 18.52 33.38.18.71.35 1.43.53 2.17 3.16 14.1 4.34 31.82-2.56 44.91-6.16 9.14-12.79 16.66-23.97 18.92-11.5 1.24-19.34-.55-29-7-2.55-2.09-4.23-4.22-6-7-.55-.77-1.11-1.54-1.69-2.34-10.9-16.43-13.87-37.33-10.17-56.45 2.71-12.27 8.4-22.18 18.75-29.56 11.6-7.03 24.8-4.09 35.59 2.97m-37.48 21.38c-1.73 3.46-1.49 7.22-1 11 1.8 2.87 2.99 4.49 6 6 3.48.48 5.96.67 8.98-1.27 4.61-3.9 4.61-3.9 6.02-6.73.43-7.61.43-7.61-2-11-2.57-2.77-4.05-3.01-7.87-3.5-4.77.16-6.86 2.16-10.13 5.5"/>
  <path fill="#531d13" d="M718.813 469.75c1.41.72 2.81 1.47 4.19 2.25.99.54 1.98 1.07 3 1.63 15.93 12.61 22.82 31.82 26 51.37 1.46 13.49.82 26.39-7.07 37.87-5.77 6.86-13.69 10.55-22.51 11.37-11.09.31-17.14-3.5-25.16-10.92-15.05-15.42-20.68-38.67-20.56-59.63.28-10.41 3.9-19.8 11-27.55 8.39-7.64 20.39-11.03 31.11-6.39M690.003 494c-1.65 3.29-1.78 6.47-1 10 1.87 2.85 3.91 4.55 7 6 4.53.55 7.85-.14 11.5-2.87 2.48-3.53 2.88-6.86 2.86-11.13-.61-3.36-2.8-4.94-5.36-7l-1-1c-6.63-.93-9.71 1.32-14 6"/>
  <path fill="#f88386" d="M493.5 656.375c6.53 6.85 9.4 13.92 9.88 23.31-.31 11.78-4.97 20.85-13.11 29.06-3.99 3.66-8.31 6.12-13.27 8.25-.72.36-1.43.72-2.17 1.09-8.82 2.85-21.48 2.29-29.76-1.82-8.55-5.21-14.67-10.85-17.56-20.69-2.34-11.8.68-20.6 6.3-30.89 15.17-18.63 40.25-22.77 59.69-8.31"/>
  <path fill="#f88486" d="M787.758 560.691c8.27 4.83 13.24 11.15 16.24 20.31 1.76 12.35-1.84 23.02-9 33-5.94 7.66-14.54 13.74-24.23 15.38-9.18.91-18.27.57-25.77-5.38-1.77-1.77-3.34-3.54-4.84-5.55-1.16-1.45-1.16-1.45-3.16-2.45-4.47-8.55-5.77-17.88-3.08-27.18 5.2-13.24 12.81-22.64 25.83-28.82 9.17-3.48 19.08-3.54 28.01.69"/>
  <path fill="#551c14" d="M677.84 587.488c2.16.51 2.16.51 5.22 3.07 2.28 4.04 2.57 5.88 1.94 10.44-.88 2.82-1.8 5.32-3 8-.33.76-.66 1.53-1 2.31-9.48 20.52-27.16 35.62-48 43.69-4.3 1.49-8.61 2.82-13 4-.3.09-.3.09-1.85.53-17.87 3.88-37.06.05-52.42-9.37-4.64-3.1-10.18-7.07-12.73-12.16-.23-5.01.31-8.17 3.56-12.06 3.26-1.84 5.62-2.86 9.4-2.61 2.63.87 3.7 2.12 5.54 4.17 6.75 7.3 15.53 12.46 25.61 12.95 20.62-.08 38.64-6.79 53.68-21.05 6.55-7.11 10.28-15.39 13.66-24.33 3.05-6.03 6.89-7.89 13.39-7.58"/>
  <path fill="#cb325f" d="M732 120c2.71 1.89 3.09 3.32 4 6.56.4 4.62-1.23 7.54-3.41 11.51-9.12 16.82-14.61 35.54-19.59 53.93h-2c-.79 5.32-1.43 10.65-2 16h-2v25c-4 2-4 2-8 2-1.67-.93-3.33-1.87-4.96-2.86-2.98-1.66-6.09-2.83-9.26-4.06-3.16-1.23-6.28-2.52-9.4-3.83-1.03-.43-2.05-.86-3.11-1.3-.37-.15-.37-.15-2.27-.95.5-6.92 2.01-12.63 4.56-19.06.35-.91.71-1.81 1.07-2.75 3.29-8.32 7.18-16.28 11.37-24.19l1-2h2c3.32-3.57 5.3-6.42 7-11 .33-.16.33-.16 2-1 .71-1.71.71-1.71 1.38-3.81 1.27-3.66 2.83-5.49 5.62-8.19l.88-2.82c1.22-3.45 2.57-5.22 5.06-7.87.79-.85 1.59-1.7 2.41-2.58 13.09-13.51 13.09-13.51 17.65-16.73"/>
  <path fill="#f5efee" d="M476 563c3.85 3.11 5.76 5.29 6.44 10.19-.58 5.03-2.78 7.45-6.44 10.81-3.1 1.55-5.58 1.29-9 1-2.75-1.8-4.53-3.05-6-6-.53-3.79-.85-7.46 1.05-10.89 4-4.86 7.73-6.21 13.95-5.11"/>
  <path fill="#fbfbfb" d="M704.125 488.875c3.22 1.93 3.79 4.65 4.88 8.12-.08 3.69-.79 5.63-2.63 8.82-2.37 2.18-2.37 2.18-5.81 3.37-3.56-.19-3.56-.19-6.56-2.69-2.08-2.87-2-3.56-1.82-7.37l.82-3.13h2c.22-.59.45-1.19.68-1.81 2-3.32 4.52-5.08 8.44-5.31"/>
  <path fill="#c5415f" d="M154 361h1c.06.59.12 1.18.18 1.79.09.79.17 1.58.26 2.4.08.77.16 1.55.24 2.35.32 2.46.32 2.46.83 4.81.47 2.56.62 4.86.62 7.45 0 .93.01 1.85.01 2.8 0 .99-.01 1.98-.01 2.99 0 1.03 0 2.05.01 3.11 0 2.16-.01 4.32-.01 6.48 0 3.31 0 6.61.01 9.92 0 2.1-.01 4.2-.01 6.31 0 .98.01 1.97.01 2.99 0 .92-.01 1.84-.01 2.8v2.45c-.14 2.53-.6 4.87-1.13 7.35-.12 1.67-.2 3.35-.25 5.03-.01.47-.01.47-.09 2.88-.03 1-.07 2-.1 3.03-.32 8.82-1.01 17.36-2.56 26.06h-1c.06-1.29.12-2.57.18-3.9.23-4.91.45-9.83.67-14.74.09-2.12.19-4.23.29-6.35.8-17.39.98-34.73.92-52.13 0-2.54-.01-5.07-.01-7.6-.01-6.09-.03-12.19-.05-18.28"/>
  <path fill="#6e1b23" d="M636 213c.76.13 1.52.26 2.3.39q7.365 1.245 14.7 2.61l1-5h1v7l-15-1v-2c-.71.01-1.42.02-2.15.04-.92 0-1.84.01-2.79.02-.46.01-.46.01-2.77.04C630 215 630 215 629 214c-3.01-.11-5.99-.16-9-.17-.9 0-1.8 0-2.74-.01-1.91 0-3.83-.01-5.74-.01-2.94 0-5.88-.02-8.82-.03-1.86-.01-3.71-.01-5.57-.01-.88-.01-1.77-.01-2.68-.02-6.22.02-6.22.02-8.45 2.25l-1-1c-2 .09-2 .09-4.44.38-.4.04-.4.04-2.43.27C576 216 576 216 574 217c-1.71.07-3.42.08-5.12.06-.92-.01-1.83-.02-2.76-.02-.7-.02-1.4-.03-2.12-.04 19.96-10.41 50.65-7.71 72-4"/>
  <path fill="#825f58" d="M380 118c1 2 1 2 .5 4.25-2.09 3.83-5.09 6.1-8.5 8.75l-2-1c-.03.28-.03.28-.19 1.69-1.52 4.33-5.09 6.83-8.81 9.31v3c-.81 3.12-.81 3.12-2 6-.5.16-.5.16-3 1v-2c-3.52 1.41-4.39 2.66-6 6-.5.16-.5.16-3 1l1-4h2c.13-.29.13-.29.81-1.77 1.22-2.28 2.53-3.94 4.25-5.85.31-.35.31-.35 1.87-2.09.34-.38.34-.38 2.07-2.29.75-.85 1.51-1.69 2.29-2.57 3.8-4.26 7.62-8.45 11.71-12.43l3.81-3.81z"/>
  <path fill="#c84261" d="M415 335c0 3.81-1.01 5.77-3 9-.82.27-1.65.54-2.5.81-2.5 1.19-2.5 1.19-3.28 3.13-.22.78-.43 1.56-.66 2.37-1.4 4.99-3.26 6.86-7.56 9.69h-2l1 3c-.69 2.12-.69 2.12-2 4-2.12.75-2.12.75-4 1-.08.7-.17 1.4-.25 2.12-.93 3.56-2.63 5.89-4.75 8.88-.52.89-1.03 1.77-1.56 2.69-1.31 2.11-2.61 3.65-4.44 5.31l-2-1c11.17-18.04 22.71-35.25 37-51"/>
  <path fill="#a0827c" d="M925 489h1c2.08 27.06 1.03 53.99-1 81h-1c-.03-7.36-.04-14.71-.05-22.07l-.03-7.47c-.05-17.18.27-34.3 1.08-51.46"/>
  <path fill="#eaddd9" d="M704 488c-1.75 1.93-3.17 3.09-5.5 4.31-3.2 2.17-4.14 4.1-5.5 7.69-.19 2.88-.19 2.88 0 5l4 2v2h4l1-2 2 1c.14-.3.14-.3.88-1.81C706 504 706 504 708 501c-.02-2.48-.02-2.48-.38-5.19-.11-.9-.22-1.8-.33-2.73-.1-.69-.19-1.37-.29-2.08 2.85 2.43 2.98 2.84 3.38 6.88-.16 3.78-.91 6.14-3.38 9.12-2.66 2.08-4.57 2.92-7.88 3.56-4.54-.82-7.36-2.86-10.12-6.56-.98-2.9-.91-5.08 0-8 4.18-6.56 7.25-8.14 15-8"/>
  <path fill="#d14166" d="m746 559 1 2-1 2h2v2h2c-1.26 3.77-2.89 4.59-6 7-1.69 1.65-3.36 3.31-5 5l-1-4c-.66.16-1.32.33-2 .5-3.73.62-7.22.56-11 .5v-1c.55-.15 1.09-.29 1.65-.45 7.2-2.14 13.94-5.19 18.41-11.43z"/>
  <path fill="#bf3f5b" d="M338 476c2.02 3.7 2.02 3.7 1.81 6.38-.81 2.62-.81 2.62-2.31 5.43-1.82 3.86-2.07 6.96-2.5 11.19l-1 1c-.12 1.24-.25 2.48-.38 3.75-.31 2.85-.56 4.15-2.12 6.63-1.98 3.47-2.04 6.57-2.29 10.51C329 523 329 523 328 524c-.07.58-.07.58-.44 3.5-.18 1.15-.37 2.31-.56 3.5-.33.16-.33.16-2 1 .54-7.64 1.93-14.92 3.69-22.38l.79-3.4c2.42-10.21 5.34-20.23 8.52-30.22"/>
  <path fill="#b73853" d="M711 192h1c-1 10-1 10-1.24 12.07-.83 7.51-1.09 15.01-1.32 22.55-.05 1.3-.09 2.59-.13 3.92-.11 3.15-.21 6.3-.31 9.46-3.44-1.31-3.44-1.31-7-3-.16-.5-.16-.5-1-3 .83-.16.83-.16 5-1l1-25h2c-.02-.57-.05-1.14-.07-1.72-.12-5.21.39-9.35 2.07-14.28"/>
  <path fill="#b43a50" d="M902 468h1c3.85 25.26 3.31 50.52 3 76h-1c-.03-1.17-.05-2.34-.08-3.55-.09-4.33-.19-8.67-.29-13-.05-1.88-.09-3.76-.13-5.64-.05-2.69-.12-5.39-.18-8.08-.02-.85-.04-1.69-.05-2.56-.16-5.94-.16-5.94-1.27-8.17-.16-2.62-.26-5.23-.32-7.85l-.06-2.35-.18-7.42c-.05-1.68-.09-3.36-.13-5.04-.11-4.11-.21-8.23-.31-12.34"/>
  <path fill="#6f1b22" d="M153 372h2c.26 28.08-.27 55.97-2 84h-1c-.2-3.08-.38-6.17-.56-9.25-.06-.87-.11-1.75-.17-2.64-.03-.43-.03-.43-.15-2.56-.05-.78-.09-1.55-.14-2.35.02-2.25.44-4.04 1.02-6.2.33-3.12.43-6.25.56-9.38.04-.96.09-1.92.13-2.92.62-16.22.39-32.47.31-48.7"/>
  <path fill="#cbb3af" d="M131 342c.5.33.5.33 3 2 .26 2.91.26 2.91.12 6.5-.13 4.02-.11 7.87.37 11.85.69 6.66.63 13.29.61 19.97 0 1.35-.01 2.71-.01 4.06 0 3.53-.01 7.06-.02 10.58-.01 3.62-.02 7.23-.02 10.84-.01 7.07-.03 14.13-.05 21.2h-1c-.01-.68-.02-1.36-.02-2.07-.08-6.53-.17-13.05-.27-19.58-.05-3.35-.09-6.71-.13-10.06-.33-27-.33-27-1.9-39.93-.63-5.16-.76-10.16-.68-15.36"/>
  <path fill="#c0395c" d="M749 109v2h-2c-.29.74-.58 1.48-.88 2.25-.94 2.32-1.97 4.53-3.12 6.75h-2c-.27.93-.54 1.86-.81 2.81-1.13 3.04-1.89 4.09-4.19 6.19-.5-1.29-1-2.58-1.5-3.88-.28-.71-.56-1.43-.84-2.17C733 121 733 121 733 119c1.72-1.4 3.5-2.72 5.31-4 .99-.7 1.97-1.4 2.99-2.12 5.58-3.88 5.58-3.88 7.7-3.88"/>
  <path fill="#c84261" d="M154 563h1l1 5h2c-.1.71-.19 1.43-.29 2.16-.11.96-.22 1.92-.33 2.9-.12.94-.24 1.88-.36 2.85-.02 2.98.53 5.21 1.42 8.03 1.19 4.38 1.57 8.94 2.12 13.44.25 1.98.5 3.97.76 5.96.1.87.21 1.74.32 2.64C162 608 162 608 163 609c-.29 2.34-.62 4.67-1 7h-1c-.84-4.98-1.67-9.96-2.51-14.94-.28-1.69-.57-3.38-.85-5.08l-1.23-7.32c-.13-.75-.25-1.5-.38-2.26-2.19-13.13-2.19-13.13-2.09-19.4.01-.76.02-1.53.02-2.31.02-.56.03-1.12.04-1.69"/>
  <path fill="#ba3f59" d="M849 545c2.35 3.78 2.7 7.78 3.15 12.11.08.83.17 1.65.26 2.5 1.04 11.51.55 23.04.21 34.58-.05 2.32-.11 4.64-.17 6.96-.14 5.62-.29 11.24-.45 16.85h-1c-.01-.32-.01-.32-.03-1.94-.11-6.72-.22-13.44-.34-20.15-.05-2.51-.09-5.01-.13-7.51l-.18-10.83c-.02-1.11-.04-2.22-.05-3.36-.11-5.76-.4-11.43-1.05-17.16-.27-2.56-.32-5.09-.28-7.67.01-.84.02-1.68.02-2.54.02-.61.03-1.22.04-1.84"/>
  <path fill="#be3f5a" d="M516 574c3.14 2.57 3.95 5.13 5 9 .2 2.7.3 5.3.3 8 .01.75.01 1.5.01 2.27.01 1.59.01 3.17.01 4.75-.01 2.41.02 4.81.04 7.22v4.63l.03 2.15c-.05 5.13-1.22 8.45-3.39 12.98-.31 1.11-.62 2.23-.94 3.38-.35.86-.7 1.73-1.06 2.62-2.07.66-2.07.66-4 1 .51-.85 1.01-1.71 1.53-2.59 9.1-16.89 7.06-37.3 2.47-55.41"/>
  <path fill="#85635c" d="M210 176c-2.2 2.27-3.88 3.92-7.12 4.16l-4.67-.21c-3.26.07-5.46 1.39-8.21 3.05-.72.29-1.44.58-2.19.88-2.5 1.55-3.46 3.55-4.81 6.12-2-1-2-1-3-3-2.06-.62-2.06-.62-4-1 27.17-12.34 27.17-12.34 34-10"/>
  <path fill="#c74360" d="m819 761 1 4h3v-2l3 1c-1.32 2.93-2.75 4.99-5.04 7.23-.29.29-.29.29-1.76 1.74-.6.59-1.2 1.18-1.82 1.78s-1.23 1.2-1.86 1.82c-1.5 1.48-3.01 2.96-4.52 4.43l-1-2a140 140 0 0 1 3.88-8c.37-.74.75-1.47 1.14-2.23.7-1.37 1.41-2.74 2.12-4.11q.945-1.815 1.86-3.66"/>
  <path fill="#ad3750" d="M249.531 188.902h2.66c2.77.01 5.54.02 8.31.04 1.89 0 3.78 0 5.67.01 4.61.01 9.22.03 13.83.05v1c-10.37.84-20.62 1.09-31.02.87-5.43-.06-9.76.45-14.98 2.13-2.65.4-5.28.76-7.94 1.06q-.99.12-2.01.24c-1.34.15-2.67.31-4 .46-3.36.39-6.7.81-10.05 1.24 2.75-1.84 4.06-2.4 7.17-3.04.81-.17 1.62-.34 2.46-.51.42-.09.42-.09 2.56-.51.82-.18 1.65-.35 2.5-.53 8.34-1.72 16.33-2.56 24.84-2.51"/>
  <path fill="#cf4161" d="M463 639c2.36.91 4.69 1.84 6.95 2.99 5.99 2.96 11.4 3.76 18.05 4.01l-4 1v3c-16.11-1.79-16.11-1.79-20.19-6.56C463 641 463 641 463 639"/>
  <path fill="#b63352" d="M706 146c.58 1.86.58 1.86 1 4-1.31 2.25-1.31 2.25-3 4h-2c-.18.61-.36 1.23-.55 1.86-.25.81-.5 1.62-.76 2.45-.12.4-.12.4-.74 2.43-1 2.38-2.11 3.5-3.95 5.26-.69 2.69-.69 2.69-1 5l-3 1-2 3c-1-3-1-3 .59-6.19.77-1.28 1.55-2.55 2.35-3.81q.6-.99 1.23-2.01c3.66-5.88 7.63-11.48 11.83-16.99"/>
  <path fill="#6f1b22" d="M148 320c1.78 3.55 2.36 5.42 2.82 9.22.12 1.01.25 2.03.37 3.08.13 1.05.25 2.11.37 3.2.07.51.07.51.38 3.11 1.12 9.34 2.23 18.72 2.12 28.14-.01 1.01-.02 2.01-.02 3.05-.02.72-.03 1.45-.04 2.2h-1c-2.16-10.73-2.21-21.1-2-32h-2z"/>
  <path fill="#c84162" d="M495 269v3c-3.09 3.02-6.68 5.48-10.69 7.06-3.18 1.29-4.92 3.49-7.31 5.94-3.8 2.93-6.14 4.57-11 4 9.03-7.53 19.09-13.71 29-20"/>
  <path fill="#8c6d65" d="m402 98 2 1c-5.96 9.36-5.96 9.36-11.19 11-.93.33-1.85.66-2.81 1-.69 2-.69 2-1 4-3.48 2.32-3.98 2-8 2 1.81-2.5 1.81-2.5 4-5h3c.22-.56.43-1.13.65-1.71 1.81-3.07 4.12-4.78 6.91-6.98.99-.79 1.99-1.57 3.01-2.38.8-.64 1.6-1.28 2.43-1.93z"/>
  <path fill="#6b1c20" d="M520 69c5.69.46 9.26 1.77 14 5 1.16 3.47 1.33 6.54 1.56 10.19.09 1.27.17 2.54.26 3.85.06.98.12 1.95.18 2.96l6-1c-3.33 2.67-6.67 5.33-10 8 .16-1.3.33-2.6.5-3.94 1.29-12.24 1.29-12.24-.94-17.37-3.38-3.55-7-5.03-11.56-6.69z"/>
  <path fill="#c84361" d="M329 701c2.21 3.32 2.79 5.75 3.69 9.62 2.05 8.64 4.47 17.16 6.94 25.69 1.49 5.23 2.79 10.27 3.37 15.69-5.41-10.17-7.91-22.07-10.81-33.12-.32-1.19-.63-2.38-.95-3.6-.29-1.13-.59-2.25-.88-3.41-.27-1.01-.53-2.02-.8-3.06-.54-2.69-.67-5.08-.56-7.81"/>
  <path fill="#66191c" d="M843 743c1 3 1 3-.19 5.44C841 751 841 751 838.94 753c-1.94 2-1.94 2-2.77 4.36-1.41 3.19-3.13 4.71-5.79 6.95-.82.7-1.64 1.4-2.48 2.12-.31.26-.31.26-1.9 1.57l-2-1c.7-.81 1.4-1.62 2.12-2.46 5.98-6.96 11.62-14.01 16.88-21.54"/>
  <path fill="#c54460" d="M384 204c4.74.5 7.37 2.52 11.06 5.44 6.35 4.98 6.35 4.98 9.94 6.56v2c.58.26 1.15.52 1.75.78 2.44 1.32 4.26 2.85 6.31 4.72 2.27 2.06 4.38 3.79 6.94 5.5l-2 2v-2c-.56-.25-1.12-.5-1.7-.75-2.71-1.47-4.83-3.25-7.18-5.25-4.38-3.64-8.85-7.07-13.5-10.38-.29-.2-.29-.2-1.76-1.26-2.54-1.79-5.09-3.5-7.77-5.09-.69-.42-1.38-.84-2.09-1.27z"/>
  <path fill="#a0837c" d="M423 903v1c.83.01 1.66.03 2.52.04 1.09.05 2.17.1 3.29.15 1.08.03 2.16.07 3.27.1 2.92.71 2.92.71 4.81 3.26.36.81.73 1.62 1.11 2.45-.83-.31-1.67-.62-2.53-.95-3.74-1.13-7.16-1.56-11.06-1.9-.35-.03-.35-.03-2.12-.19-2.22-.2-4.44-.4-6.67-.58-1.51-.14-3.02-.28-4.54-.41-3.69-.33-7.39-.65-11.08-.97v-1c7.68-.67 15.28-1.16 23-1"/>
  <path fill="#c83f5e" d="M393 873c4.53 3.68 8.39 7.41 12 12-2.04-.14-4.08-.29-6.12-.44-1.14-.08-2.28-.16-3.45-.24-3.18-.3-6.29-.75-9.43-1.32v-1l10-1-2-2c-.4-1.99-.74-3.99-1-6"/>
  <path fill="#66191d" d="M314 718c3.03 3.44 4.01 6.86 5.19 11.25.34 1.26.69 2.53 1.04 3.83.25.96.51 1.93.77 2.92h3l1 3c-.32.62-.63 1.25-.96 1.89-1.28 2.6-1.08 4.03-.66 6.86.05.4.05.4.33 2.42.05.3.05.3.29 1.83-4.9-9.25-10-23.44-10-34"/>
  <path fill="#671a1e" d="M471 903c6.55 1.43 13.06 2.98 19.56 4.62.92.23 1.83.46 2.77.7L500 910v1q-2.22.045-4.44.06c-.41.01-.41.01-2.49.04C491 911 491 911 490 910a95 95 0 0 0-5.06-.06c-.92.01-1.84.02-2.79.02-.71.02-1.42.03-2.15.04v-3l-6 1v-3h-3z"/>
  <path fill="#cb4564" d="M632 231c6.45.41 12.54 1.46 18.81 2.94.73.17 1.46.34 2.21.51 3.8.92 7.4 1.98 10.98 3.55-5.33 2-11.6.18-17-1v-2h-7v-2h-7z"/>
</svg>
